<?xml version="1.0" encoding="UTF-8" standalone="no"?>
<!DOCTYPE svg PUBLIC "-//W3C//DTD SVG 1.1//EN"
 "http://www.w3.org/Graphics/SVG/1.1/DTD/svg11.dtd">
<!-- Generated by graphviz version 2.26.3 (20100126.1600)
 -->
<!-- Title: controllers_diagram Pages: 1 -->
<svg width="865pt" height="723pt"
 viewBox="0.00 0.00 865.00 723.31" xmlns="http://www.w3.org/2000/svg" xmlns:xlink="http://www.w3.org/1999/xlink">
<g id="graph1" class="graph" transform="scale(1 1) rotate(0) translate(4 719.309)">
<title>controllers_diagram</title>
<polygon fill="white" stroke="white" points="-4,5 -4,-719.309 862,-719.309 862,5 -4,5"/>
<!-- _diagram_info -->
<g id="node1" class="node"><title>_diagram_info</title>
<text text-anchor="start" x="614" y="-353.3" font-family="Times Roman,serif" font-size="13.00">Controllers diagram</text>
<text text-anchor="start" x="614" y="-336.3" font-family="Times Roman,serif" font-size="13.00">Date: Oct 05 2012 &#45; 09:48</text>
<text text-anchor="start" x="614" y="-319.3" font-family="Times Roman,serif" font-size="13.00">Migration version: 20120823082216</text>
<text text-anchor="start" x="614" y="-302.3" font-family="Times Roman,serif" font-size="13.00">Generated by RailRoady 1.1.0</text>
<text text-anchor="start" x="614" y="-285.3" font-family="Times Roman,serif" font-size="13.00">http://railroady.prestonlee.com</text>
</g>
<!-- OverviewController -->
<g id="node2" class="node"><title>OverviewController</title>
<polyline fill="none" stroke="black" points="13,-289.446 141,-289.446 "/>
<path fill="none" stroke="black" d="M141,-289.446C147,-289.446 153,-295.446 153,-301.446"/>
<polyline fill="none" stroke="black" points="153,-301.446 153,-379.446 "/>
<path fill="none" stroke="black" d="M153,-379.446C153,-385.446 147,-391.446 141,-391.446"/>
<polyline fill="none" stroke="black" points="141,-391.446 13,-391.446 "/>
<path fill="none" stroke="black" d="M13,-391.446C7,-391.446 1,-385.446 1,-379.446"/>
<polyline fill="none" stroke="black" points="1,-379.446 1,-301.446 "/>
<path fill="none" stroke="black" d="M1,-301.446C1,-295.446 7,-289.446 13,-289.446"/>
<text text-anchor="middle" x="77" y="-374.846" font-family="Times Roman,serif" font-size="14.00">OverviewController</text>
<polyline fill="none" stroke="black" points="1,-365.446 153,-365.446 "/>
<text text-anchor="start" x="9" y="-348.846" font-family="Times Roman,serif" font-size="14.00">index</text>
<polyline fill="none" stroke="black" points="1,-339.446 153,-339.446 "/>
<polyline fill="none" stroke="black" points="1,-315.446 153,-315.446 "/>
<text text-anchor="start" x="9" y="-298.846" font-family="Times Roman,serif" font-size="14.00">_layout</text>
</g>
<!-- ArrangementsController -->
<g id="node3" class="node"><title>ArrangementsController</title>
<polyline fill="none" stroke="black" points="485.864,-79.7503 645.864,-79.7503 "/>
<path fill="none" stroke="black" d="M645.864,-79.7503C651.864,-79.7503 657.864,-85.7503 657.864,-91.7503"/>
<polyline fill="none" stroke="black" points="657.864,-91.7503 657.864,-187.75 "/>
<path fill="none" stroke="black" d="M657.864,-187.75C657.864,-193.75 651.864,-199.75 645.864,-199.75"/>
<polyline fill="none" stroke="black" points="645.864,-199.75 485.864,-199.75 "/>
<path fill="none" stroke="black" d="M485.864,-199.75C479.864,-199.75 473.864,-193.75 473.864,-187.75"/>
<polyline fill="none" stroke="black" points="473.864,-187.75 473.864,-91.7503 "/>
<path fill="none" stroke="black" d="M473.864,-91.7503C473.864,-85.7503 479.864,-79.7503 485.864,-79.7503"/>
<text text-anchor="middle" x="565.864" y="-183.15" font-family="Times Roman,serif" font-size="14.00">ArrangementsController</text>
<polyline fill="none" stroke="black" points="473.864,-173.75 657.864,-173.75 "/>
<text text-anchor="start" x="481.864" y="-157.15" font-family="Times Roman,serif" font-size="14.00">index</text>
<text text-anchor="start" x="481.864" y="-139.15" font-family="Times Roman,serif" font-size="14.00">show</text>
<polyline fill="none" stroke="black" points="473.864,-129.75 657.864,-129.75 "/>
<polyline fill="none" stroke="black" points="473.864,-105.75 657.864,-105.75 "/>
<text text-anchor="start" x="481.864" y="-89.1503" font-family="Times Roman,serif" font-size="14.00">_layout</text>
</g>
<!-- EntitiesController -->
<g id="node4" class="node"><title>EntitiesController</title>
<polyline fill="none" stroke="black" points="58.9836,-1.5 285.984,-1.5 "/>
<path fill="none" stroke="black" d="M285.984,-1.5C291.984,-1.5 297.984,-7.5 297.984,-13.5"/>
<polyline fill="none" stroke="black" points="297.984,-13.5 297.984,-145.5 "/>
<path fill="none" stroke="black" d="M297.984,-145.5C297.984,-151.5 291.984,-157.5 285.984,-157.5"/>
<polyline fill="none" stroke="black" points="285.984,-157.5 58.9836,-157.5 "/>
<path fill="none" stroke="black" d="M58.9836,-157.5C52.9836,-157.5 46.9836,-151.5 46.9836,-145.5"/>
<polyline fill="none" stroke="black" points="46.9836,-145.5 46.9836,-13.5 "/>
<path fill="none" stroke="black" d="M46.9836,-13.5C46.9836,-7.5 52.9836,-1.5 58.9836,-1.5"/>
<text text-anchor="middle" x="172.484" y="-140.9" font-family="Times Roman,serif" font-size="14.00">EntitiesController</text>
<polyline fill="none" stroke="black" points="46.9836,-131.5 297.984,-131.5 "/>
<text text-anchor="start" x="54.9836" y="-114.9" font-family="Times Roman,serif" font-size="14.00">arrangement_totals</text>
<text text-anchor="start" x="54.9836" y="-96.9" font-family="Times Roman,serif" font-size="14.00">arrangement_totals_with_indirect</text>
<text text-anchor="start" x="54.9836" y="-78.9" font-family="Times Roman,serif" font-size="14.00">funders_and_recipients</text>
<text text-anchor="start" x="54.9836" y="-60.9" font-family="Times Roman,serif" font-size="14.00">show</text>
<polyline fill="none" stroke="black" points="46.9836,-51.5 297.984,-51.5 "/>
<polyline fill="none" stroke="black" points="46.9836,-27.5 297.984,-27.5 "/>
<text text-anchor="start" x="54.9836" y="-10.9" font-family="Times Roman,serif" font-size="14.00">_layout</text>
</g>
<!-- CountryInstitutionsController -->
<g id="node5" class="node"><title>CountryInstitutionsController</title>
<polyline fill="none" stroke="black" points="58.9992,-539.809 255.999,-539.809 "/>
<path fill="none" stroke="black" d="M255.999,-539.809C261.999,-539.809 267.999,-545.809 267.999,-551.809"/>
<polyline fill="none" stroke="black" points="267.999,-551.809 267.999,-701.809 "/>
<path fill="none" stroke="black" d="M267.999,-701.809C267.999,-707.809 261.999,-713.809 255.999,-713.809"/>
<polyline fill="none" stroke="black" points="255.999,-713.809 58.9992,-713.809 "/>
<path fill="none" stroke="black" d="M58.9992,-713.809C52.9992,-713.809 46.9992,-707.809 46.9992,-701.809"/>
<polyline fill="none" stroke="black" points="46.9992,-701.809 46.9992,-551.809 "/>
<path fill="none" stroke="black" d="M46.9992,-551.809C46.9992,-545.809 52.9992,-539.809 58.9992,-539.809"/>
<text text-anchor="middle" x="157.499" y="-697.209" font-family="Times Roman,serif" font-size="14.00">CountryInstitutionsController</text>
<polyline fill="none" stroke="black" points="46.9992,-687.809 267.999,-687.809 "/>
<text text-anchor="start" x="54.9992" y="-671.209" font-family="Times Roman,serif" font-size="14.00">docs</text>
<text text-anchor="start" x="54.9992" y="-653.209" font-family="Times Roman,serif" font-size="14.00">graph</text>
<text text-anchor="start" x="54.9992" y="-635.209" font-family="Times Roman,serif" font-size="14.00">list</text>
<text text-anchor="start" x="54.9992" y="-617.209" font-family="Times Roman,serif" font-size="14.00">redd</text>
<text text-anchor="start" x="54.9992" y="-599.209" font-family="Times Roman,serif" font-size="14.00">show</text>
<polyline fill="none" stroke="black" points="46.9992,-589.809 267.999,-589.809 "/>
<polyline fill="none" stroke="black" points="46.9992,-565.809 267.999,-565.809 "/>
<text text-anchor="start" x="54.9992" y="-549.209" font-family="Times Roman,serif" font-size="14.00">_layout</text>
</g>
<!-- StaticController -->
<g id="node6" class="node"><title>StaticController</title>
<polyline fill="none" stroke="black" points="510.025,-460.571 611.025,-460.571 "/>
<path fill="none" stroke="black" d="M611.025,-460.571C617.025,-460.571 623.025,-466.571 623.025,-472.571"/>
<polyline fill="none" stroke="black" points="623.025,-472.571 623.025,-694.571 "/>
<path fill="none" stroke="black" d="M623.025,-694.571C623.025,-700.571 617.025,-706.571 611.025,-706.571"/>
<polyline fill="none" stroke="black" points="611.025,-706.571 510.025,-706.571 "/>
<path fill="none" stroke="black" d="M510.025,-706.571C504.025,-706.571 498.025,-700.571 498.025,-694.571"/>
<polyline fill="none" stroke="black" points="498.025,-694.571 498.025,-472.571 "/>
<path fill="none" stroke="black" d="M498.025,-472.571C498.025,-466.571 504.025,-460.571 510.025,-460.571"/>
<text text-anchor="middle" x="560.525" y="-689.971" font-family="Times Roman,serif" font-size="14.00">StaticController</text>
<polyline fill="none" stroke="black" points="498.025,-680.571 623.025,-680.571 "/>
<text text-anchor="start" x="506.025" y="-663.971" font-family="Times Roman,serif" font-size="14.00">about</text>
<text text-anchor="start" x="506.025" y="-645.971" font-family="Times Roman,serif" font-size="14.00">contact</text>
<text text-anchor="start" x="506.025" y="-627.971" font-family="Times Roman,serif" font-size="14.00">download</text>
<text text-anchor="start" x="506.025" y="-609.971" font-family="Times Roman,serif" font-size="14.00">faq</text>
<text text-anchor="start" x="506.025" y="-591.971" font-family="Times Roman,serif" font-size="14.00">glossary</text>
<text text-anchor="start" x="506.025" y="-573.971" font-family="Times Roman,serif" font-size="14.00">guide</text>
<text text-anchor="start" x="506.025" y="-555.971" font-family="Times Roman,serif" font-size="14.00">index</text>
<text text-anchor="start" x="506.025" y="-537.971" font-family="Times Roman,serif" font-size="14.00">submit</text>
<text text-anchor="start" x="506.025" y="-519.971" font-family="Times Roman,serif" font-size="14.00">terms</text>
<polyline fill="none" stroke="black" points="498.025,-510.571 623.025,-510.571 "/>
<polyline fill="none" stroke="black" points="498.025,-486.571 623.025,-486.571 "/>
<text text-anchor="start" x="506.025" y="-469.971" font-family="Times Roman,serif" font-size="14.00">_layout</text>
</g>
<!-- ApplicationController -->
<g id="node7" class="node"><title>ApplicationController</title>
<polyline fill="none" stroke="black" points="261.561,-274.732 475.561,-274.732 "/>
<path fill="none" stroke="black" d="M475.561,-274.732C481.561,-274.732 487.561,-280.732 487.561,-286.732"/>
<polyline fill="none" stroke="black" points="487.561,-286.732 487.561,-436.732 "/>
<path fill="none" stroke="black" d="M487.561,-436.732C487.561,-442.732 481.561,-448.732 475.561,-448.732"/>
<polyline fill="none" stroke="black" points="475.561,-448.732 261.561,-448.732 "/>
<path fill="none" stroke="black" d="M261.561,-448.732C255.561,-448.732 249.561,-442.732 249.561,-436.732"/>
<polyline fill="none" stroke="black" points="249.561,-436.732 249.561,-286.732 "/>
<path fill="none" stroke="black" d="M249.561,-286.732C249.561,-280.732 255.561,-274.732 261.561,-274.732"/>
<text text-anchor="middle" x="368.561" y="-432.132" font-family="Times Roman,serif" font-size="14.00">ApplicationController</text>
<polyline fill="none" stroke="black" points="249.561,-422.732 487.561,-422.732 "/>
<text text-anchor="start" x="257.561" y="-406.132" font-family="Times Roman,serif" font-size="14.00">_callback_before_9</text>
<text text-anchor="start" x="257.561" y="-388.132" font-family="Times Roman,serif" font-size="14.00">_one_time_conditions_valid_10?</text>
<text text-anchor="start" x="257.561" y="-370.132" font-family="Times Roman,serif" font-size="14.00">_one_time_conditions_valid_8?</text>
<text text-anchor="start" x="257.561" y="-352.132" font-family="Times Roman,serif" font-size="14.00">default_institution_reported_by</text>
<text text-anchor="start" x="257.561" y="-334.132" font-family="Times Roman,serif" font-size="14.00">default_reported_by</text>
<polyline fill="none" stroke="black" points="249.561,-324.732 487.561,-324.732 "/>
<polyline fill="none" stroke="black" points="249.561,-300.732 487.561,-300.732 "/>
<text text-anchor="start" x="257.561" y="-284.132" font-family="Times Roman,serif" font-size="14.00">_layout</text>
</g>
<!-- ApplicationController&#45;&gt;OverviewController -->
<g id="edge2" class="edge"><title>ApplicationController&#45;&gt;OverviewController</title>
<path fill="none" stroke="black" d="M249.551,-353.043C216.957,-350.664 182.514,-348.149 153.044,-345.998"/>
</g>
<!-- ApplicationController&#45;&gt;ArrangementsController -->
<g id="edge4" class="edge"><title>ApplicationController&#45;&gt;ArrangementsController</title>
<path fill="none" stroke="black" d="M445.974,-274.636C468.214,-249.614 491.966,-222.892 512.412,-199.888"/>
</g>
<!-- ApplicationController&#45;&gt;EntitiesController -->
<g id="edge6" class="edge"><title>ApplicationController&#45;&gt;EntitiesController</title>
<path fill="none" stroke="black" d="M307.863,-274.365C281.995,-237.13 252.048,-194.025 226.908,-157.838"/>
</g>
<!-- ApplicationController&#45;&gt;CountryInstitutionsController -->
<g id="edge8" class="edge"><title>ApplicationController&#45;&gt;CountryInstitutionsController</title>
<path fill="none" stroke="black" d="M299.159,-448.895C275.97,-478.018 250.135,-510.466 226.943,-539.593"/>
</g>
<!-- ApplicationController&#45;&gt;StaticController -->
<g id="edge10" class="edge"><title>ApplicationController&#45;&gt;StaticController</title>
<path fill="none" stroke="black" d="M443.879,-448.772C461.735,-469.407 480.594,-491.2 497.82,-511.107"/>
</g>
</g>
</svg>
