<?xml version="1.0" encoding="UTF-8" standalone="no"?>
<!DOCTYPE svg PUBLIC "-//W3C//DTD SVG 1.1//EN"
 "http://www.w3.org/Graphics/SVG/1.1/DTD/svg11.dtd">
<!-- Generated by graphviz version 2.26.3 (20100126.1600)
 -->
<!-- Title: models_diagram Pages: 1 -->
<svg width="1226pt" height="1108pt"
 viewBox="0.00 0.00 1226.00 1108.00" xmlns="http://www.w3.org/2000/svg" xmlns:xlink="http://www.w3.org/1999/xlink">
<g id="graph1" class="graph" transform="scale(1 1) rotate(0) translate(4 1104)">
<title>models_diagram</title>
<polygon fill="white" stroke="white" points="-4,5 -4,-1104 1223,-1104 1223,5 -4,5"/>
<!-- _diagram_info -->
<g id="node1" class="node"><title>_diagram_info</title>
<text text-anchor="start" x="8" y="-1004.8" font-family="Times Roman,serif" font-size="13.00">Models diagram</text>
<text text-anchor="start" x="8" y="-987.8" font-family="Times Roman,serif" font-size="13.00">Date: Oct 05 2012 &#45; 09:47</text>
<text text-anchor="start" x="8" y="-970.8" font-family="Times Roman,serif" font-size="13.00">Migration version: 20120823082216</text>
<text text-anchor="start" x="8" y="-953.8" font-family="Times Roman,serif" font-size="13.00">Generated by RailRoady 1.1.0</text>
<text text-anchor="start" x="8" y="-936.8" font-family="Times Roman,serif" font-size="13.00">http://railroady.prestonlee.com</text>
</g>
<!-- FocalPoint -->
<g id="node2" class="node"><title>FocalPoint</title>
<polyline fill="none" stroke="black" points="179.5,-451 320.5,-451 "/>
<path fill="none" stroke="black" d="M320.5,-451C326.5,-451 332.5,-457 332.5,-463"/>
<polyline fill="none" stroke="black" points="332.5,-463 332.5,-707 "/>
<path fill="none" stroke="black" d="M332.5,-707C332.5,-713 326.5,-719 320.5,-719"/>
<polyline fill="none" stroke="black" points="320.5,-719 179.5,-719 "/>
<path fill="none" stroke="black" d="M179.5,-719C173.5,-719 167.5,-713 167.5,-707"/>
<polyline fill="none" stroke="black" points="167.5,-707 167.5,-463 "/>
<path fill="none" stroke="black" d="M167.5,-463C167.5,-457 173.5,-451 179.5,-451"/>
<text text-anchor="middle" x="250" y="-702.4" font-family="Times Roman,serif" font-size="14.00">FocalPoint</text>
<polyline fill="none" stroke="black" points="167.5,-693 332.5,-693 "/>
<text text-anchor="start" x="175.5" y="-676.4" font-family="Times Roman,serif" font-size="14.00">id :integer</text>
<text text-anchor="start" x="175.5" y="-658.4" font-family="Times Roman,serif" font-size="14.00">id_feed :integer</text>
<text text-anchor="start" x="175.5" y="-640.4" font-family="Times Roman,serif" font-size="14.00">name :string</text>
<text text-anchor="start" x="175.5" y="-622.4" font-family="Times Roman,serif" font-size="14.00">email :string</text>
<text text-anchor="start" x="175.5" y="-604.4" font-family="Times Roman,serif" font-size="14.00">position :string</text>
<text text-anchor="start" x="175.5" y="-586.4" font-family="Times Roman,serif" font-size="14.00">institution :string</text>
<text text-anchor="start" x="175.5" y="-568.4" font-family="Times Roman,serif" font-size="14.00">address :string</text>
<text text-anchor="start" x="175.5" y="-550.4" font-family="Times Roman,serif" font-size="14.00">phone :string</text>
<text text-anchor="start" x="175.5" y="-532.4" font-family="Times Roman,serif" font-size="14.00">fax :string</text>
<text text-anchor="start" x="175.5" y="-514.4" font-family="Times Roman,serif" font-size="14.00">preferred :boolean</text>
<text text-anchor="start" x="175.5" y="-496.4" font-family="Times Roman,serif" font-size="14.00">profile_id :integer</text>
<text text-anchor="start" x="175.5" y="-478.4" font-family="Times Roman,serif" font-size="14.00">created_at :datetime</text>
<text text-anchor="start" x="175.5" y="-460.4" font-family="Times Roman,serif" font-size="14.00">updated_at :datetime</text>
</g>
<!-- Import -->
<g id="node3" class="node"><title>Import</title>
<polyline fill="none" stroke="black" points="701.5,-894 842.5,-894 "/>
<path fill="none" stroke="black" d="M842.5,-894C848.5,-894 854.5,-900 854.5,-906"/>
<polyline fill="none" stroke="black" points="854.5,-906 854.5,-1042 "/>
<path fill="none" stroke="black" d="M854.5,-1042C854.5,-1048 848.5,-1054 842.5,-1054"/>
<polyline fill="none" stroke="black" points="842.5,-1054 701.5,-1054 "/>
<path fill="none" stroke="black" d="M701.5,-1054C695.5,-1054 689.5,-1048 689.5,-1042"/>
<polyline fill="none" stroke="black" points="689.5,-1042 689.5,-906 "/>
<path fill="none" stroke="black" d="M689.5,-906C689.5,-900 695.5,-894 701.5,-894"/>
<text text-anchor="middle" x="772" y="-1037.4" font-family="Times Roman,serif" font-size="14.00">Import</text>
<polyline fill="none" stroke="black" points="689.5,-1028 854.5,-1028 "/>
<text text-anchor="start" x="697.5" y="-1011.4" font-family="Times Roman,serif" font-size="14.00">id :integer</text>
<text text-anchor="start" x="697.5" y="-993.4" font-family="Times Roman,serif" font-size="14.00">date :string</text>
<text text-anchor="start" x="697.5" y="-975.4" font-family="Times Roman,serif" font-size="14.00">etag :string</text>
<text text-anchor="start" x="697.5" y="-957.4" font-family="Times Roman,serif" font-size="14.00">last_entry_id :string</text>
<text text-anchor="start" x="697.5" y="-939.4" font-family="Times Roman,serif" font-size="14.00">created_at :datetime</text>
<text text-anchor="start" x="697.5" y="-921.4" font-family="Times Roman,serif" font-size="14.00">updated_at :datetime</text>
<text text-anchor="start" x="697.5" y="-903.4" font-family="Times Roman,serif" font-size="14.00">tag :string</text>
</g>
<!-- Geometry -->
<g id="node4" class="node"><title>Geometry</title>
<polyline fill="none" stroke="black" points="883.5,-912 1024.5,-912 "/>
<path fill="none" stroke="black" d="M1024.5,-912C1030.5,-912 1036.5,-918 1036.5,-924"/>
<polyline fill="none" stroke="black" points="1036.5,-924 1036.5,-1024 "/>
<path fill="none" stroke="black" d="M1036.5,-1024C1036.5,-1030 1030.5,-1036 1024.5,-1036"/>
<polyline fill="none" stroke="black" points="1024.5,-1036 883.5,-1036 "/>
<path fill="none" stroke="black" d="M883.5,-1036C877.5,-1036 871.5,-1030 871.5,-1024"/>
<polyline fill="none" stroke="black" points="871.5,-1024 871.5,-924 "/>
<path fill="none" stroke="black" d="M871.5,-924C871.5,-918 877.5,-912 883.5,-912"/>
<text text-anchor="middle" x="954" y="-1019.4" font-family="Times Roman,serif" font-size="14.00">Geometry</text>
<polyline fill="none" stroke="black" points="871.5,-1010 1036.5,-1010 "/>
<text text-anchor="start" x="879.5" y="-993.4" font-family="Times Roman,serif" font-size="14.00">id :integer</text>
<text text-anchor="start" x="879.5" y="-975.4" font-family="Times Roman,serif" font-size="14.00">iso :string</text>
<text text-anchor="start" x="879.5" y="-957.4" font-family="Times Roman,serif" font-size="14.00">geom :text</text>
<text text-anchor="start" x="879.5" y="-939.4" font-family="Times Roman,serif" font-size="14.00">created_at :datetime</text>
<text text-anchor="start" x="879.5" y="-921.4" font-family="Times Roman,serif" font-size="14.00">updated_at :datetime</text>
</g>
<!-- ActionCategory -->
<g id="node5" class="node"><title>ActionCategory</title>
<polyline fill="none" stroke="black" points="71.5,-73 232.5,-73 "/>
<path fill="none" stroke="black" d="M232.5,-73C238.5,-73 244.5,-79 244.5,-85"/>
<polyline fill="none" stroke="black" points="244.5,-85 244.5,-221 "/>
<path fill="none" stroke="black" d="M244.5,-221C244.5,-227 238.5,-233 232.5,-233"/>
<polyline fill="none" stroke="black" points="232.5,-233 71.5,-233 "/>
<path fill="none" stroke="black" d="M71.5,-233C65.5,-233 59.5,-227 59.5,-221"/>
<polyline fill="none" stroke="black" points="59.5,-221 59.5,-85 "/>
<path fill="none" stroke="black" d="M59.5,-85C59.5,-79 65.5,-73 71.5,-73"/>
<text text-anchor="middle" x="152" y="-216.4" font-family="Times Roman,serif" font-size="14.00">ActionCategory</text>
<polyline fill="none" stroke="black" points="59.5,-207 244.5,-207 "/>
<text text-anchor="start" x="67.5" y="-190.4" font-family="Times Roman,serif" font-size="14.00">id :integer</text>
<text text-anchor="start" x="67.5" y="-172.4" font-family="Times Roman,serif" font-size="14.00">id_feed :integer</text>
<text text-anchor="start" x="67.5" y="-154.4" font-family="Times Roman,serif" font-size="14.00">name :string</text>
<text text-anchor="start" x="67.5" y="-136.4" font-family="Times Roman,serif" font-size="14.00">description :text</text>
<text text-anchor="start" x="67.5" y="-118.4" font-family="Times Roman,serif" font-size="14.00">created_at :datetime</text>
<text text-anchor="start" x="67.5" y="-100.4" font-family="Times Roman,serif" font-size="14.00">updated_at :datetime</text>
<text text-anchor="start" x="67.5" y="-82.4" font-family="Times Roman,serif" font-size="14.00">arrangement_id :integer</text>
</g>
<!-- Profile -->
<g id="node6" class="node"><title>Profile</title>
<polyline fill="none" stroke="black" points="280,-849 660,-849 "/>
<path fill="none" stroke="black" d="M660,-849C666,-849 672,-855 672,-861"/>
<polyline fill="none" stroke="black" points="672,-861 672,-1087 "/>
<path fill="none" stroke="black" d="M672,-1087C672,-1093 666,-1099 660,-1099"/>
<polyline fill="none" stroke="black" points="660,-1099 280,-1099 "/>
<path fill="none" stroke="black" d="M280,-1099C274,-1099 268,-1093 268,-1087"/>
<polyline fill="none" stroke="black" points="268,-1087 268,-861 "/>
<path fill="none" stroke="black" d="M268,-861C268,-855 274,-849 280,-849"/>
<text text-anchor="middle" x="470" y="-1082.4" font-family="Times Roman,serif" font-size="14.00">Profile</text>
<polyline fill="none" stroke="black" points="268,-1073 672,-1073 "/>
<text text-anchor="start" x="276" y="-1056.4" font-family="Times Roman,serif" font-size="14.00">id :integer</text>
<text text-anchor="start" x="276" y="-1038.4" font-family="Times Roman,serif" font-size="14.00">id_feed :integer</text>
<text text-anchor="start" x="276" y="-1020.4" font-family="Times Roman,serif" font-size="14.00">background_information :text</text>
<text text-anchor="start" x="276" y="-1002.4" font-family="Times Roman,serif" font-size="14.00">approaches_working_well :text</text>
<text text-anchor="start" x="276" y="-984.4" font-family="Times Roman,serif" font-size="14.00">suggestions_on_improving_approaches :text</text>
<text text-anchor="start" x="276" y="-966.4" font-family="Times Roman,serif" font-size="14.00">suggestions_on_improving_sharing_of_experiences :text</text>
<text text-anchor="start" x="276" y="-948.4" font-family="Times Roman,serif" font-size="14.00">country_institution_id :integer</text>
<text text-anchor="start" x="276" y="-930.4" font-family="Times Roman,serif" font-size="14.00">created_at :datetime</text>
<text text-anchor="start" x="276" y="-912.4" font-family="Times Roman,serif" font-size="14.00">updated_at :datetime</text>
<text text-anchor="start" x="276" y="-894.4" font-family="Times Roman,serif" font-size="14.00">last_published_update :datetime</text>
<text text-anchor="start" x="276" y="-876.4" font-family="Times Roman,serif" font-size="14.00">institution_id :integer</text>
<text text-anchor="start" x="276" y="-858.4" font-family="Times Roman,serif" font-size="14.00">fast_start_pledge :float</text>
</g>
<!-- Profile&#45;&gt;FocalPoint -->
<g id="edge4" class="edge"><title>Profile&#45;&gt;FocalPoint</title>
<path fill="none" stroke="#a20d5e" d="M361.391,-842.291C354.137,-831.604 347.244,-820.77 341,-810 326.237,-784.536 312.755,-756.217 300.954,-728.495"/>
<ellipse fill="none" stroke="#a20d5e" cx="363.686" cy="-845.628" rx="4.00002" ry="4.00002"/>
<polygon fill="#a20d5e" stroke="#a20d5e" points="300.89,-728.342 301.166,-717.379 298.953,-723.732 297.017,-719.122 297.017,-719.122 297.017,-719.122 298.953,-723.732 292.868,-720.865 300.89,-728.342 300.89,-728.342"/>
</g>
<!-- Arrangement -->
<g id="node9" class="node"><title>Arrangement</title>
<polyline fill="none" stroke="black" points="362,-361 578,-361 "/>
<path fill="none" stroke="black" d="M578,-361C584,-361 590,-367 590,-373"/>
<polyline fill="none" stroke="black" points="590,-373 590,-797 "/>
<path fill="none" stroke="black" d="M590,-797C590,-803 584,-809 578,-809"/>
<polyline fill="none" stroke="black" points="578,-809 362,-809 "/>
<path fill="none" stroke="black" d="M362,-809C356,-809 350,-803 350,-797"/>
<polyline fill="none" stroke="black" points="350,-797 350,-373 "/>
<path fill="none" stroke="black" d="M350,-373C350,-367 356,-361 362,-361"/>
<text text-anchor="middle" x="470" y="-792.4" font-family="Times Roman,serif" font-size="14.00">Arrangement</text>
<polyline fill="none" stroke="black" points="350,-783 590,-783 "/>
<text text-anchor="start" x="358" y="-766.4" font-family="Times Roman,serif" font-size="14.00">id :integer</text>
<text text-anchor="start" x="358" y="-748.4" font-family="Times Roman,serif" font-size="14.00">id_feed :integer</text>
<text text-anchor="start" x="358" y="-730.4" font-family="Times Roman,serif" font-size="14.00">status :string</text>
<text text-anchor="start" x="358" y="-712.4" font-family="Times Roman,serif" font-size="14.00">title :string</text>
<text text-anchor="start" x="358" y="-694.4" font-family="Times Roman,serif" font-size="14.00">description :text</text>
<text text-anchor="start" x="358" y="-676.4" font-family="Times Roman,serif" font-size="14.00">objectives :text</text>
<text text-anchor="start" x="358" y="-658.4" font-family="Times Roman,serif" font-size="14.00">financing_modality :string</text>
<text text-anchor="start" x="358" y="-640.4" font-family="Times Roman,serif" font-size="14.00">financing_type :string</text>
<text text-anchor="start" x="358" y="-622.4" font-family="Times Roman,serif" font-size="14.00">original_currency :string</text>
<text text-anchor="start" x="358" y="-604.4" font-family="Times Roman,serif" font-size="14.00">usd_conversion_rate :float</text>
<text text-anchor="start" x="358" y="-586.4" font-family="Times Roman,serif" font-size="14.00">last_published_update :datetime</text>
<text text-anchor="start" x="358" y="-568.4" font-family="Times Roman,serif" font-size="14.00">created_at :datetime</text>
<text text-anchor="start" x="358" y="-550.4" font-family="Times Roman,serif" font-size="14.00">updated_at :datetime</text>
<text text-anchor="start" x="358" y="-532.4" font-family="Times Roman,serif" font-size="14.00">period_from :integer</text>
<text text-anchor="start" x="358" y="-514.4" font-family="Times Roman,serif" font-size="14.00">period_to :integer</text>
<text text-anchor="start" x="358" y="-496.4" font-family="Times Roman,serif" font-size="14.00">profile_id :integer</text>
<text text-anchor="start" x="358" y="-478.4" font-family="Times Roman,serif" font-size="14.00">institution_id :integer</text>
<text text-anchor="start" x="358" y="-460.4" font-family="Times Roman,serif" font-size="14.00">arrangement_type :string</text>
<text text-anchor="start" x="358" y="-442.4" font-family="Times Roman,serif" font-size="14.00">phase :integer</text>
<text text-anchor="start" x="358" y="-424.4" font-family="Times Roman,serif" font-size="14.00">fast_start_finance :boolean</text>
<text text-anchor="start" x="358" y="-406.4" font-family="Times Roman,serif" font-size="14.00">comments :text</text>
<text text-anchor="start" x="358" y="-388.4" font-family="Times Roman,serif" font-size="14.00">estimate :boolean</text>
<text text-anchor="start" x="358" y="-370.4" font-family="Times Roman,serif" font-size="14.00">additional_notes :text</text>
</g>
<!-- Profile&#45;&gt;Arrangement -->
<g id="edge2" class="edge"><title>Profile&#45;&gt;Arrangement</title>
<path fill="none" stroke="#01edb0" d="M470,-840.565C470,-833.638 470,-826.595 470,-819.478"/>
<ellipse fill="none" stroke="#01edb0" cx="470" cy="-844.777" rx="4" ry="4"/>
<polygon fill="#01edb0" stroke="#01edb0" points="470,-819.003 474.5,-809.003 470,-814.003 470,-809.003 470,-809.003 470,-809.003 470,-814.003 465.5,-809.003 470,-819.003 470,-819.003"/>
</g>
<!-- Region -->
<g id="node7" class="node"><title>Region</title>
<polyline fill="none" stroke="black" points="1065.5,-921 1206.5,-921 "/>
<path fill="none" stroke="black" d="M1206.5,-921C1212.5,-921 1218.5,-927 1218.5,-933"/>
<polyline fill="none" stroke="black" points="1218.5,-933 1218.5,-1015 "/>
<path fill="none" stroke="black" d="M1218.5,-1015C1218.5,-1021 1212.5,-1027 1206.5,-1027"/>
<polyline fill="none" stroke="black" points="1206.5,-1027 1065.5,-1027 "/>
<path fill="none" stroke="black" d="M1065.5,-1027C1059.5,-1027 1053.5,-1021 1053.5,-1015"/>
<polyline fill="none" stroke="black" points="1053.5,-1015 1053.5,-933 "/>
<path fill="none" stroke="black" d="M1053.5,-933C1053.5,-927 1059.5,-921 1065.5,-921"/>
<text text-anchor="middle" x="1136" y="-1010.4" font-family="Times Roman,serif" font-size="14.00">Region</text>
<polyline fill="none" stroke="black" points="1053.5,-1001 1218.5,-1001 "/>
<text text-anchor="start" x="1061.5" y="-984.4" font-family="Times Roman,serif" font-size="14.00">id :integer</text>
<text text-anchor="start" x="1061.5" y="-966.4" font-family="Times Roman,serif" font-size="14.00">name :string</text>
<text text-anchor="start" x="1061.5" y="-948.4" font-family="Times Roman,serif" font-size="14.00">created_at :datetime</text>
<text text-anchor="start" x="1061.5" y="-930.4" font-family="Times Roman,serif" font-size="14.00">updated_at :datetime</text>
</g>
<!-- AnnualFinancing -->
<g id="node8" class="node"><title>AnnualFinancing</title>
<polyline fill="none" stroke="black" points="273.5,-64 434.5,-64 "/>
<path fill="none" stroke="black" d="M434.5,-64C440.5,-64 446.5,-70 446.5,-76"/>
<polyline fill="none" stroke="black" points="446.5,-76 446.5,-230 "/>
<path fill="none" stroke="black" d="M446.5,-230C446.5,-236 440.5,-242 434.5,-242"/>
<polyline fill="none" stroke="black" points="434.5,-242 273.5,-242 "/>
<path fill="none" stroke="black" d="M273.5,-242C267.5,-242 261.5,-236 261.5,-230"/>
<polyline fill="none" stroke="black" points="261.5,-230 261.5,-76 "/>
<path fill="none" stroke="black" d="M261.5,-76C261.5,-70 267.5,-64 273.5,-64"/>
<text text-anchor="middle" x="354" y="-225.4" font-family="Times Roman,serif" font-size="14.00">AnnualFinancing</text>
<polyline fill="none" stroke="black" points="261.5,-216 446.5,-216 "/>
<text text-anchor="start" x="269.5" y="-199.4" font-family="Times Roman,serif" font-size="14.00">id :integer</text>
<text text-anchor="start" x="269.5" y="-181.4" font-family="Times Roman,serif" font-size="14.00">id_feed :integer</text>
<text text-anchor="start" x="269.5" y="-163.4" font-family="Times Roman,serif" font-size="14.00">year :integer</text>
<text text-anchor="start" x="269.5" y="-145.4" font-family="Times Roman,serif" font-size="14.00">contribution :float</text>
<text text-anchor="start" x="269.5" y="-127.4" font-family="Times Roman,serif" font-size="14.00">disbursement :float</text>
<text text-anchor="start" x="269.5" y="-109.4" font-family="Times Roman,serif" font-size="14.00">arrangement_id :integer</text>
<text text-anchor="start" x="269.5" y="-91.4" font-family="Times Roman,serif" font-size="14.00">created_at :datetime</text>
<text text-anchor="start" x="269.5" y="-73.4" font-family="Times Roman,serif" font-size="14.00">updated_at :datetime</text>
</g>
<!-- Arrangement&#45;&gt;ActionCategory -->
<g id="edge10" class="edge"><title>Arrangement&#45;&gt;ActionCategory</title>
<path fill="none" stroke="#23ddef" d="M344.333,-363.487C343.228,-362.314 342.117,-361.151 341,-360 309.04,-327.073 285.98,-337.906 253,-306 233.629,-287.259 216.022,-264.176 201.131,-241.673"/>
<ellipse fill="none" stroke="#23ddef" cx="347.1" cy="-366.499" rx="4.00002" ry="4.00002"/>
<polygon fill="#23ddef" stroke="#23ddef" points="201.003,-241.476 199.334,-230.638 198.281,-237.281 195.559,-233.087 195.559,-233.087 195.559,-233.087 198.281,-237.281 191.785,-235.537 201.003,-241.476 201.003,-241.476"/>
</g>
<!-- Arrangement&#45;&gt;AnnualFinancing -->
<g id="edge8" class="edge"><title>Arrangement&#45;&gt;AnnualFinancing</title>
<path fill="none" stroke="#6feb6f" d="M370.732,-352.843C369.777,-349.217 368.865,-345.601 368,-342 361.127,-313.381 357.348,-281.686 355.34,-252.559"/>
<ellipse fill="none" stroke="#6feb6f" cx="371.844" cy="-356.938" rx="4.00001" ry="4.00001"/>
<polygon fill="#6feb6f" stroke="#6feb6f" points="355.327,-252.353 359.193,-242.091 355.014,-247.363 354.701,-242.373 354.701,-242.373 354.701,-242.373 355.014,-247.363 350.21,-242.654 355.327,-252.353 355.327,-252.353"/>
</g>
<!-- Institution -->
<g id="node10" class="node"><title>Institution</title>
<polyline fill="none" stroke="black" points="546,-1 742,-1 "/>
<path fill="none" stroke="black" d="M742,-1C748,-1 754,-7 754,-13"/>
<polyline fill="none" stroke="black" points="754,-13 754,-293 "/>
<path fill="none" stroke="black" d="M754,-293C754,-299 748,-305 742,-305"/>
<polyline fill="none" stroke="black" points="742,-305 546,-305 "/>
<path fill="none" stroke="black" d="M546,-305C540,-305 534,-299 534,-293"/>
<polyline fill="none" stroke="black" points="534,-293 534,-13 "/>
<path fill="none" stroke="black" d="M534,-13C534,-7 540,-1 546,-1"/>
<text text-anchor="middle" x="644" y="-288.4" font-family="Times Roman,serif" font-size="14.00">Institution</text>
<polyline fill="none" stroke="black" points="534,-279 754,-279 "/>
<text text-anchor="start" x="542" y="-262.4" font-family="Times Roman,serif" font-size="14.00">id :integer</text>
<text text-anchor="start" x="542" y="-244.4" font-family="Times Roman,serif" font-size="14.00">id_feed :integer</text>
<text text-anchor="start" x="542" y="-226.4" font-family="Times Roman,serif" font-size="14.00">acronym :string</text>
<text text-anchor="start" x="542" y="-208.4" font-family="Times Roman,serif" font-size="14.00">name :string</text>
<text text-anchor="start" x="542" y="-190.4" font-family="Times Roman,serif" font-size="14.00">iso2 :string</text>
<text text-anchor="start" x="542" y="-172.4" font-family="Times Roman,serif" font-size="14.00">institution_type :string</text>
<text text-anchor="start" x="542" y="-154.4" font-family="Times Roman,serif" font-size="14.00">iso3_code :string</text>
<text text-anchor="start" x="542" y="-136.4" font-family="Times Roman,serif" font-size="14.00">forest_area :float</text>
<text text-anchor="start" x="542" y="-118.4" font-family="Times Roman,serif" font-size="14.00">forest_area_percentage :float</text>
<text text-anchor="start" x="542" y="-100.4" font-family="Times Roman,serif" font-size="14.00">population :integer</text>
<text text-anchor="start" x="542" y="-82.4" font-family="Times Roman,serif" font-size="14.00">latitude :float</text>
<text text-anchor="start" x="542" y="-64.4" font-family="Times Roman,serif" font-size="14.00">longitude :float</text>
<text text-anchor="start" x="542" y="-46.4" font-family="Times Roman,serif" font-size="14.00">created_at :datetime</text>
<text text-anchor="start" x="542" y="-28.4" font-family="Times Roman,serif" font-size="14.00">updated_at :datetime</text>
<text text-anchor="start" x="542" y="-10.4" font-family="Times Roman,serif" font-size="14.00">region_id :integer</text>
</g>
<!-- Arrangement&#45;&gt;Institution -->
<g id="edge6" class="edge"><title>Arrangement&#45;&gt;Institution</title>
<path fill="none" stroke="#a22267" d="M372.815,-353.122C376.024,-342.934 380.976,-333.161 388,-324 406.762,-299.532 427.531,-320.005 455,-306 479.924,-293.293 504.609,-276.912 527.509,-259.61"/>
<ellipse fill="none" stroke="#a22267" cx="371.736" cy="-357.128" rx="4.00001" ry="4.00001"/>
<ellipse fill="#a22267" stroke="#a22267" cx="530.742" cy="-257.138" rx="4.00002" ry="4.00002"/>
<text text-anchor="middle" x="459.5" y="-329.4" font-family="Times Roman,serif" font-size="14.00">reporting_institution</text>
</g>
<!-- Arrangement&#45;&gt;Institution -->
<g id="edge12" class="edge"><title>Arrangement&#45;&gt;Institution</title>
<path fill="none" stroke="#84bd90" d="M542.903,-351.506C546.527,-342.168 550.23,-332.968 554,-324 555.3,-320.907 556.636,-317.795 558.003,-314.67"/>
<polygon fill="#84bd90" stroke="#84bd90" points="542.887,-351.548 535.106,-359.274 541.097,-356.217 539.307,-360.885 539.307,-360.885 539.307,-360.885 541.097,-356.217 543.509,-362.496 542.887,-351.548 542.887,-351.548"/>
<polygon fill="#84bd90" stroke="#84bd90" points="558.124,-314.397 566.302,-307.092 560.157,-309.83 562.191,-305.262 562.191,-305.262 562.191,-305.262 560.157,-309.83 558.08,-303.432 558.124,-314.397 558.124,-314.397"/>
<text text-anchor="middle" x="627.5" y="-329.4" font-family="Times Roman,serif" font-size="14.00">beneficiary_countries</text>
</g>
<!-- Institution&#45;&gt;Profile -->
<g id="edge14" class="edge"><title>Institution&#45;&gt;Profile</title>
<path fill="none" stroke="#fe9452" d="M717.515,-313.148C718.284,-322.793 718.185,-332.455 717,-342 690.577,-554.876 693.606,-617.479 599,-810 593.758,-820.668 587.74,-831.295 581.232,-841.717"/>
<ellipse fill="none" stroke="#fe9452" cx="717.085" cy="-309.031" rx="4" ry="4"/>
<ellipse fill="#fe9452" stroke="#fe9452" cx="579.037" cy="-845.162" rx="4.00002" ry="4.00002"/>
</g>
<!-- Institution&#45;&gt;Arrangement -->
<g id="edge16" class="edge"><title>Institution&#45;&gt;Arrangement</title>
<path fill="none" stroke="#86ed65" d="M707.677,-313.4C706.822,-323.139 704.7,-332.738 701,-342 679.204,-396.562 638.683,-445.876 597.592,-485.598"/>
<ellipse fill="none" stroke="#86ed65" cx="707.896" cy="-309.185" rx="4" ry="4"/>
<polygon fill="#86ed65" stroke="#86ed65" points="597.43,-485.752 587.085,-489.389 593.809,-489.2 590.188,-492.648 590.188,-492.648 590.188,-492.648 593.809,-489.2 593.292,-495.907 597.43,-485.752 597.43,-485.752"/>
</g>
</g>
</svg>
