<?xml version="1.0" encoding="UTF-8" standalone="no"?>
<!DOCTYPE svg PUBLIC "-//W3C//DTD SVG 1.1//EN"
 "http://www.w3.org/Graphics/SVG/1.1/DTD/svg11.dtd">
<!-- Generated by graphviz version 2.26.3 (20100126.1600)
 -->
<!-- Title: models_diagram Pages: 1 -->
<svg width="802pt" height="270pt"
 viewBox="0.00 0.00 802.00 270.00" xmlns="http://www.w3.org/2000/svg" xmlns:xlink="http://www.w3.org/1999/xlink">
<g id="graph1" class="graph" transform="scale(1 1) rotate(0) translate(4 266)">
<title>models_diagram</title>
<polygon fill="white" stroke="white" points="-4,5 -4,-266 799,-266 799,5 -4,5"/>
<!-- _diagram_info -->
<g id="node1" class="node"><title>_diagram_info</title>
<text text-anchor="start" x="98" y="-245.8" font-family="Times Roman,serif" font-size="13.00">Models diagram</text>
<text text-anchor="start" x="98" y="-228.8" font-family="Times Roman,serif" font-size="13.00">Date: Oct 05 2012 &#45; 09:47</text>
<text text-anchor="start" x="98" y="-211.8" font-family="Times Roman,serif" font-size="13.00">Migration version: 20120823082216</text>
<text text-anchor="start" x="98" y="-194.8" font-family="Times Roman,serif" font-size="13.00">Generated by RailRoady 1.1.0</text>
<text text-anchor="start" x="98" y="-177.8" font-family="Times Roman,serif" font-size="13.00">http://railroady.prestonlee.com</text>
</g>
<!-- FocalPoint -->
<g id="node2" class="node"><title>FocalPoint</title>
<ellipse fill="none" stroke="black" cx="245" cy="-111" rx="60.8112" ry="18.3848"/>
<text text-anchor="middle" x="245" y="-107.4" font-family="Times Roman,serif" font-size="14.00">FocalPoint</text>
</g>
<!-- Import -->
<g id="node3" class="node"><title>Import</title>
<ellipse fill="none" stroke="black" cx="504" cy="-215" rx="43.8406" ry="18.3848"/>
<text text-anchor="middle" x="504" y="-211.4" font-family="Times Roman,serif" font-size="14.00">Import</text>
</g>
<!-- Geometry -->
<g id="node4" class="node"><title>Geometry</title>
<ellipse fill="none" stroke="black" cx="627" cy="-215" rx="60.8112" ry="18.3848"/>
<text text-anchor="middle" x="627" y="-211.4" font-family="Times Roman,serif" font-size="14.00">Geometry</text>
</g>
<!-- ActionCategory -->
<g id="node5" class="node"><title>ActionCategory</title>
<ellipse fill="none" stroke="black" cx="87" cy="-19" rx="86.9741" ry="18.3848"/>
<text text-anchor="middle" x="87" y="-15.4" font-family="Times Roman,serif" font-size="14.00">ActionCategory</text>
</g>
<!-- Profile -->
<g id="node6" class="node"><title>Profile</title>
<ellipse fill="none" stroke="black" cx="400" cy="-215" rx="41.9273" ry="18.3848"/>
<text text-anchor="middle" x="400" y="-211.4" font-family="Times Roman,serif" font-size="14.00">Profile</text>
</g>
<!-- Profile&#45;&gt;FocalPoint -->
<g id="edge4" class="edge"><title>Profile&#45;&gt;FocalPoint</title>
<path fill="none" stroke="#73da36" d="M377.512,-192.072C368.976,-183.976 358.915,-175.123 349,-168 329.801,-154.207 306.903,-141.32 287.487,-131.302"/>
<ellipse fill="none" stroke="#73da36" cx="380.558" cy="-195.017" rx="4.00002" ry="4.00002"/>
<polygon fill="#73da36" stroke="#73da36" points="287.469,-131.293 280.59,-122.753 283.011,-129.029 278.553,-126.766 278.553,-126.766 278.553,-126.766 283.011,-129.029 276.515,-130.778 287.469,-131.293 287.469,-131.293"/>
</g>
<!-- Arrangement -->
<g id="node9" class="node"><title>Arrangement</title>
<ellipse fill="none" stroke="black" cx="400" cy="-111" rx="75.8684" ry="18.3848"/>
<text text-anchor="middle" x="400" y="-107.4" font-family="Times Roman,serif" font-size="14.00">Arrangement</text>
</g>
<!-- Profile&#45;&gt;Arrangement -->
<g id="edge2" class="edge"><title>Profile&#45;&gt;Arrangement</title>
<path fill="none" stroke="#9462f1" d="M400,-187.926C400,-173.224 400,-155.041 400,-140.044"/>
<ellipse fill="none" stroke="#9462f1" cx="400" cy="-192.407" rx="4" ry="4"/>
<polygon fill="#9462f1" stroke="#9462f1" points="400,-139.783 404.5,-129.783 400,-134.783 400,-129.783 400,-129.783 400,-129.783 400,-134.783 395.5,-129.783 400,-139.783 400,-139.783"/>
</g>
<!-- Region -->
<g id="node7" class="node"><title>Region</title>
<ellipse fill="none" stroke="black" cx="750" cy="-215" rx="44.0472" ry="18.3848"/>
<text text-anchor="middle" x="750" y="-211.4" font-family="Times Roman,serif" font-size="14.00">Region</text>
</g>
<!-- AnnualFinancing -->
<g id="node8" class="node"><title>AnnualFinancing</title>
<ellipse fill="none" stroke="black" cx="284" cy="-19" rx="92.1303" ry="18.3848"/>
<text text-anchor="middle" x="284" y="-15.4" font-family="Times Roman,serif" font-size="14.00">AnnualFinancing</text>
</g>
<!-- Arrangement&#45;&gt;ActionCategory -->
<g id="edge10" class="edge"><title>Arrangement&#45;&gt;ActionCategory</title>
<path fill="none" stroke="#3ea421" d="M343.76,-94.4693C288.578,-78.2498 204.675,-53.5882 147.932,-36.9098"/>
<ellipse fill="none" stroke="#3ea421" cx="347.6" cy="-95.5979" rx="4.00001" ry="4.00001"/>
<polygon fill="#3ea421" stroke="#3ea421" points="147.611,-36.8155 139.286,-29.6781 142.814,-35.4055 138.017,-33.9955 138.017,-33.9955 138.017,-33.9955 142.814,-35.4055 136.748,-38.3128 147.611,-36.8155 147.611,-36.8155"/>
</g>
<!-- Arrangement&#45;&gt;AnnualFinancing -->
<g id="edge8" class="edge"><title>Arrangement&#45;&gt;AnnualFinancing</title>
<path fill="none" stroke="#90cbe7" d="M331.941,-96.7811C319.261,-91.4393 307.145,-84.0951 298,-74 291.512,-66.8373 287.94,-57.0892 286.003,-47.7884"/>
<ellipse fill="none" stroke="#90cbe7" cx="335.725" cy="-98.2517" rx="4.00001" ry="4.00001"/>
<polygon fill="#90cbe7" stroke="#90cbe7" points="285.962,-47.5229 288.889,-36.9549 285.202,-42.581 284.441,-37.6392 284.441,-37.6392 284.441,-37.6392 285.202,-42.581 279.994,-38.3235 285.962,-47.5229 285.962,-47.5229"/>
</g>
<!-- Institution -->
<g id="node10" class="node"><title>Institution</title>
<ellipse fill="none" stroke="black" cx="564" cy="-19" rx="62.9325" ry="18.3848"/>
<text text-anchor="middle" x="564" y="-15.4" font-family="Times Roman,serif" font-size="14.00">Institution</text>
</g>
<!-- Arrangement&#45;&gt;Institution -->
<g id="edge6" class="edge"><title>Arrangement&#45;&gt;Institution</title>
<path fill="none" stroke="#0a4c32" d="M343.026,-93.79C321.36,-84.3424 304.737,-71.4069 318,-56 323.876,-49.1746 426.555,-35.533 497.38,-26.857"/>
<ellipse fill="none" stroke="#0a4c32" cx="346.828" cy="-95.3448" rx="4.00002" ry="4.00002"/>
<ellipse fill="#0a4c32" stroke="#0a4c32" cx="501.449" cy="-26.3609" rx="4.00001" ry="4.00001"/>
<text text-anchor="middle" x="389.5" y="-61.4" font-family="Times Roman,serif" font-size="14.00">reporting_institution</text>
</g>
<!-- Arrangement&#45;&gt;Institution -->
<g id="edge12" class="edge"><title>Arrangement&#45;&gt;Institution</title>
<path fill="none" stroke="#bf6741" d="M438.606,-88.5357C446.136,-83.8883 453.896,-78.9089 461,-74 471.679,-66.6211 472.924,-62.7695 484,-56 494.507,-49.5783 506.312,-43.5379 517.563,-38.2736"/>
<polygon fill="#bf6741" stroke="#bf6741" points="438.469,-88.6192 427.586,-89.9697 434.197,-91.2169 429.924,-93.8147 429.924,-93.8147 429.924,-93.8147 434.197,-91.2169 432.262,-97.6597 438.469,-88.6192 438.469,-88.6192"/>
<polygon fill="#bf6741" stroke="#bf6741" points="517.742,-38.1916 528.708,-38.1373 522.292,-36.1172 526.841,-34.0428 526.841,-34.0428 526.841,-34.0428 522.292,-36.1172 524.974,-29.9484 517.742,-38.1916 517.742,-38.1916"/>
<text text-anchor="middle" x="557.5" y="-61.4" font-family="Times Roman,serif" font-size="14.00">beneficiary_countries</text>
</g>
<!-- Institution&#45;&gt;Profile -->
<g id="edge14" class="edge"><title>Institution&#45;&gt;Profile</title>
<path fill="none" stroke="#d7670a" d="M618.774,-34.2244C640.521,-43.2755 658.045,-56.4534 647,-74 595.534,-155.762 530.96,-113.777 451,-168 440.994,-174.785 430.992,-183.478 422.529,-191.538"/>
<ellipse fill="none" stroke="#d7670a" cx="615.001" cy="-32.7601" rx="4.00001" ry="4.00001"/>
<ellipse fill="#d7670a" stroke="#d7670a" cx="419.246" cy="-194.743" rx="4.00002" ry="4.00002"/>
</g>
<!-- Institution&#45;&gt;Arrangement -->
<g id="edge16" class="edge"><title>Institution&#45;&gt;Arrangement</title>
<path fill="none" stroke="#fe3eb7" d="M610.528,-37.4239C628.712,-47.3002 642.723,-60.2504 631,-74 621.14,-85.5645 543.853,-96.2536 481.349,-103.138"/>
<ellipse fill="none" stroke="#fe3eb7" cx="606.683" cy="-35.4704" rx="4.00002" ry="4.00002"/>
<polygon fill="#fe3eb7" stroke="#fe3eb7" points="481.004,-103.175 470.578,-99.7782 476.033,-103.714 471.062,-104.252 471.062,-104.252 471.062,-104.252 476.033,-103.714 471.547,-108.726 481.004,-103.175 481.004,-103.175"/>
</g>
</g>
</svg>
